<svg version="1.2" xmlns="http://www.w3.org/2000/svg" width="175" height="70"><style>.s0{fill:#fff}</style><g id="Layer"><path id="Layer" class="s0" d="M59.6 4h13.7v59H59.6zM158.4 4v24.1L143.2 4h-15.1v59h16.5V37.8L160.4 63H175V4zM38.2 4l-9.7 27.5-2.2 6.6q0-.1-.1-.3 0 .2-.1.3-.9-3-2.2-6.6L14.2 4H0v59H14.2V44.2l6.3 18.5h11.4l6.3-18.5V63h14.2V4zM115.7 4h-9.5v28.7c0 4.9-1 10.7-5.7 11-4.6-.3-5.6-6.1-5.6-11V4H78v34.1c0 8.6 2.1 15.1 6.3 19.6 3.8 4 9.3 6.1 15.9 6.1h.7c6.6 0 12.1-2.1 15.9-6.1 4.2-4.5 6.3-11 6.3-19.6V4z"/></g><path id="Layer" d="M0 0h175v70H0z" style="fill:none"/></svg>