<svg version="1.2" xmlns="http://www.w3.org/2000/svg" viewBox="0 0 175 70" width="175" height="70">
	<title>miunlogovit-svg</title>
	<style>.s0 {
  fill: #fff;
}

.s1 {
  fill: none;
}

</style>
	<g id="Layer">
		<path id="Layer" class="s0" d="m59.6 4h13.7v59h-13.7z"></path>
		<path id="Layer" class="s0" d="m158.4 4v24.1l-15.2-24.1h-15.1v59h16.5v-25.2l15.8 25.2h14.6v-59z"></path>
		<path id="Layer" class="s0" d="m38.2 4l-9.7 27.5q-1.2 3.6-2.2 6.6 0-0.1-0.1-0.3 0 0.2-0.1 0.3-0.9-3-2.2-6.6l-9.7-27.5h-14.2v59h7 2.3 4.9v-18.8l6.3 18.5h5.7 5.7l6.3-18.5v18.8h5 2.3 6.9v-59z"></path>
		<path id="Layer" class="s0" d="m115.7 4h-6.3-3.2v28.7c0 4.9-1 10.7-5.7 11-4.6-0.3-5.6-6.1-5.6-11v-28.7h-3.2-6.3-7.4v34.1c0 8.6 2.1 15.1 6.3 19.6 3.8 4 9.3 6.1 15.9 6.1q0.1 0 0.3 0 0.2 0 0.4 0c6.6 0 12.1-2.1 15.9-6.1 4.2-4.5 6.3-11 6.3-19.6v-34.1z"></path>
	</g>
	<path id="Layer" class="s1" d="m0 0h175v70h-175z"></path>
</svg>